<svg width="33" height="20" viewBox="0 0 33 20" fill="none" xmlns="http://www.w3.org/2000/svg">
<path d="M8.18262 5.4326H14.1238V5.90254H8.72723V9.4395H13.802V9.90945H8.72723V13.7927H14.1857V14.2626H8.18262V5.4326ZM14.656 5.4326H15.2873L18.0846 9.31583L20.9438 5.4326L24.8328 0.5L18.4435 9.72394L21.736 14.2626H21.0799L18.0846 10.1321L15.0769 14.2626H14.4332L17.7504 9.72394L14.656 5.4326ZM21.9711 5.90254V5.4326H28.7416V5.90254H25.6225V14.2626H25.0779V5.90254H21.9711Z" fill="white"/>
<path d="M0.75 5.43261H1.43076L10.8181 19.4123L6.93874 14.2626L1.31936 6.10043L1.29461 14.2626H0.75V5.43261Z" fill="white"/>
<path d="M28.6869 13.6508C28.7995 13.6508 28.8816 13.565 28.8816 13.4541C28.8816 13.3433 28.7995 13.2575 28.6869 13.2575C28.5756 13.2575 28.4922 13.3433 28.4922 13.4541C28.4922 13.565 28.5756 13.6508 28.6869 13.6508ZM29.222 13.1334C29.222 13.4607 29.4592 13.6746 29.8049 13.6746C30.1731 13.6746 30.3957 13.4541 30.3957 13.0713V11.7237H30.0989V13.07C30.0989 13.2825 29.9916 13.3961 29.8022 13.3961C29.6327 13.3961 29.5174 13.2905 29.5135 13.1334H29.222ZM30.7838 13.1162C30.805 13.4568 31.0898 13.6746 31.5136 13.6746C31.9666 13.6746 32.2501 13.4462 32.2501 13.0819C32.2501 12.7955 32.0885 12.6371 31.6964 12.546L31.4858 12.4945C31.2368 12.4364 31.1361 12.3586 31.1361 12.2226C31.1361 12.051 31.2924 11.9388 31.5269 11.9388C31.7494 11.9388 31.9031 12.0484 31.9309 12.2239H32.2197C32.2024 11.9032 31.919 11.6775 31.5309 11.6775C31.1136 11.6775 30.8354 11.9032 30.8354 12.2424C30.8354 12.5222 30.9931 12.6885 31.3388 12.7691L31.5852 12.8285C31.8382 12.8879 31.9494 12.975 31.9494 13.1202C31.9494 13.2891 31.7746 13.4119 31.5361 13.4119C31.2805 13.4119 31.103 13.2971 31.0778 13.1162H30.7838Z" fill="white"/>
</svg>
