<svg width="25" height="24" viewBox="0 0 25 24" fill="none" xmlns="http://www.w3.org/2000/svg">
<path d="M12.5 14.1121C13.6579 14.1121 14.5966 13.1734 14.5966 12.0155C14.5966 10.8576 13.6579 9.91891 12.5 9.91891C11.3421 9.91891 10.4034 10.8576 10.4034 12.0155C10.4034 13.1734 11.3421 14.1121 12.5 14.1121Z" fill="#61DBFB"/>
<path d="M12.5 16.311C18.7132 16.311 23.75 14.3878 23.75 12.0155C23.75 9.6432 18.7132 7.72006 12.5 7.72006C6.2868 7.72006 1.25 9.6432 1.25 12.0155C1.25 14.3878 6.2868 16.311 12.5 16.311Z" stroke="#61DBFB"/>
<path d="M8.78003 14.1632C11.8866 19.544 16.0705 22.9445 18.125 21.7583C20.1795 20.5721 19.3266 15.2486 16.22 9.86778C13.1134 4.48699 8.92948 1.08657 6.875 2.27273C4.82051 3.45888 5.67342 8.78245 8.78003 14.1632Z" stroke="#61DBFB"/>
<path d="M8.78003 9.86779C5.67343 15.2486 4.82052 20.5721 6.875 21.7583C8.92948 22.9445 13.1134 19.544 16.22 14.1632C19.3266 8.78245 20.1795 3.45889 18.125 2.27273C16.0705 1.08657 11.8866 4.48699 8.78003 9.86779Z" stroke="#61DBFB"/>
</svg>
