<svg width="24" height="17" viewBox="0 0 24 17" fill="none" xmlns="http://www.w3.org/2000/svg">
<path fill-rule="evenodd" clip-rule="evenodd" d="M13.4771 12.1268V15.5254C14.0233 15.8086 14.6693 16.021 15.4151 16.1626C16.1609 16.3042 16.9469 16.375 17.7732 16.375C18.5785 16.375 19.3435 16.2971 20.0683 16.1413C20.7931 15.9856 21.4286 15.7289 21.9748 15.3713C22.521 15.0138 22.9535 14.5465 23.2721 13.9695C23.5907 13.3924 23.75 12.6791 23.75 11.8295C23.75 11.2135 23.659 10.6736 23.4769 10.2099C23.2948 9.74615 23.0323 9.33373 22.6891 8.97264C22.346 8.61154 21.9346 8.28758 21.4549 8.00082C20.9752 7.71406 20.4342 7.44326 19.832 7.1884C19.3909 7.00429 18.9952 6.82554 18.6451 6.65209C18.2949 6.47857 17.9973 6.30159 17.7522 6.12107C17.5071 5.94049 17.318 5.74932 17.185 5.54755C17.052 5.34572 16.9854 5.11742 16.9854 4.8625C16.9854 4.62889 17.0449 4.41824 17.164 4.2306C17.2831 4.04295 17.4511 3.88192 17.6682 3.74737C17.8853 3.61288 18.1513 3.5084 18.4665 3.43407C18.7816 3.35973 19.1317 3.32259 19.5169 3.32259C19.797 3.32259 20.0928 3.34384 20.4044 3.38627C20.7161 3.42877 21.0294 3.49428 21.3446 3.58274C21.6597 3.67127 21.966 3.78281 22.2637 3.91729C22.5613 4.05185 22.8361 4.20758 23.0882 4.38463V1.20911C22.5771 1.01088 22.0186 0.863965 21.4129 0.768379C20.8071 0.672793 20.1121 0.625 19.3278 0.625C18.5295 0.625 17.7732 0.71176 17.059 0.885214C16.3447 1.05867 15.7162 1.32947 15.1735 1.69763C14.6307 2.06585 14.2019 2.53489 13.8868 3.10488C13.5717 3.6748 13.4141 4.35626 13.4141 5.14926C13.4141 6.16174 13.7029 7.02554 14.2807 7.74067C14.8583 8.45574 15.7354 9.06109 16.9119 9.55674C17.3741 9.74792 17.8048 9.93549 18.2039 10.1196C18.603 10.3037 18.948 10.4949 19.2385 10.6931C19.5291 10.8914 19.7584 11.1073 19.9266 11.341C20.0946 11.5746 20.1787 11.8401 20.1787 12.1375C20.1787 12.357 20.1261 12.5605 20.0211 12.7482C19.916 12.9358 19.7567 13.0986 19.5431 13.2367C19.3296 13.3748 19.0635 13.4827 18.7449 13.5606C18.4262 13.6385 18.0534 13.6774 17.6262 13.6774C16.8979 13.6774 16.1766 13.5482 15.4623 13.2898C14.7481 13.0314 14.0863 12.6437 13.4771 12.1268V12.1268ZM7.82863 3.75341H12.1388V0.96444H0.125V3.75341H4.41415V16.1713H7.82863V3.75341Z" fill="#007ACC"/>
</svg>
