<svg width="23" height="23" viewBox="0 0 23 23" fill="none" xmlns="http://www.w3.org/2000/svg">
<path d="M22.3257 10.4975L12.502 0.674315C11.9366 0.108562 11.019 0.108562 10.4529 0.674315L8.41295 2.71426L11.0007 5.30203C11.6021 5.09882 12.2917 5.23514 12.771 5.7145C13.2527 6.19693 13.388 6.89241 13.1799 7.49569L15.6738 9.98968C16.2772 9.78182 16.9733 9.91629 17.4552 10.399C18.1287 11.0722 18.1287 12.1634 17.4552 12.8371C16.7816 13.5109 15.6904 13.5109 15.0164 12.8371C14.5098 12.33 14.3846 11.586 14.6411 10.9618L12.3153 8.63608L12.315 14.7565C12.4836 14.8399 12.6376 14.95 12.771 15.0826C13.4445 15.7558 13.4445 16.8471 12.771 17.5213C12.0973 18.1947 11.0056 18.1947 10.3329 17.5213C9.65941 16.8471 9.65941 15.7559 10.3329 15.0827C10.4943 14.9212 10.6861 14.7933 10.8973 14.7064V8.52894C10.6858 8.44262 10.4939 8.31467 10.3329 8.15268C9.82263 7.64309 9.69993 6.89435 9.96141 6.26777L7.41046 3.71657L0.674513 10.4521C0.108496 11.0184 0.108496 11.936 0.674513 12.5019L10.4984 22.3252C11.064 22.8911 11.9814 22.8911 12.5477 22.3252L22.3256 12.5475C22.8915 11.9815 22.8915 11.0633 22.3257 10.4975Z" fill="#F03C2E"/>
</svg>
