<svg width="23" height="25" viewBox="0 0 23 25" fill="none" xmlns="http://www.w3.org/2000/svg">
<path d="M11.5 24.8291C11.1506 24.8291 10.8245 24.7383 10.5217 24.5794L7.42391 22.7865C6.95807 22.5368 7.19099 22.446 7.33075 22.4007C7.95963 22.1964 8.07609 22.151 8.72826 21.7879C8.79814 21.7425 8.8913 21.7652 8.96118 21.8106L11.337 23.195C11.4301 23.2404 11.5466 23.2404 11.6165 23.195L20.9099 17.9523C21.0031 17.9069 21.0497 17.8162 21.0497 17.7027V7.24005C21.0497 7.12657 21.0031 7.03579 20.9099 6.9904L11.6165 1.77043C11.5233 1.72503 11.4068 1.72503 11.337 1.77043L2.04348 6.9904C1.95031 7.03579 1.90373 7.14926 1.90373 7.24005V17.7027C1.90373 17.7935 1.95031 17.9069 2.04348 17.9523L4.5823 19.3822C5.95652 20.063 6.81832 19.2687 6.81832 18.4743V8.14787C6.81832 8.01169 6.93478 7.87552 7.09783 7.87552H8.28571C8.42547 7.87552 8.56522 7.989 8.56522 8.14787V18.4743C8.56522 20.2673 7.56366 21.3113 5.81677 21.3113C5.28106 21.3113 4.8618 21.3113 3.67391 20.7439L1.22826 19.3822C0.622671 19.0417 0.25 18.4062 0.25 17.7254V7.26274C0.25 6.58188 0.622671 5.9464 1.22826 5.60597L10.5217 0.363303C11.104 0.0455657 11.896 0.0455657 12.4783 0.363303L21.7717 5.60597C22.3773 5.9464 22.75 6.58188 22.75 7.26274V17.7254C22.75 18.4062 22.3773 19.0417 21.7717 19.3822L12.4783 24.6248C12.1755 24.761 11.8261 24.8291 11.5 24.8291ZM14.3649 17.6346C10.2888 17.6346 9.45031 15.819 9.45031 14.2757C9.45031 14.1395 9.56677 14.0033 9.72981 14.0033H10.941C11.0807 14.0033 11.1972 14.0941 11.1972 14.2303C11.3835 15.4331 11.9193 16.0232 14.3882 16.0232C16.3447 16.0232 17.1832 15.592 17.1832 14.5707C17.1832 13.9806 16.9503 13.5494 13.8991 13.2544C11.3602 13.0047 9.7764 12.46 9.7764 10.4855C9.7764 8.64717 11.3602 7.55778 14.0155 7.55778C16.9969 7.55778 18.4643 8.55639 18.6506 10.7352C18.6506 10.8032 18.6273 10.8713 18.5807 10.9394C18.5342 10.9848 18.4643 11.0302 18.3944 11.0302H17.1832C17.0668 11.0302 16.9503 10.9394 16.927 10.8259C16.6475 9.57769 15.9255 9.16917 14.0155 9.16917C11.8727 9.16917 11.6165 9.89542 11.6165 10.4401C11.6165 11.0983 11.9193 11.3025 14.8075 11.6657C17.6724 12.0288 19.0233 12.5508 19.0233 14.5026C19 16.4998 17.323 17.6346 14.3649 17.6346Z" fill="#309E3A"/>
</svg>
